<?xml version="1.0" encoding="UTF-8"?>
<svg xmlns="http://www.w3.org/2000/svg" xmlns:xlink="http://www.w3.org/1999/xlink" width="375pt" height="374.999991pt" viewBox="0 0 375 374.999991" version="1.2">
<defs>
<clipPath id="clip1">
  <path d="M 100.070312 91.425781 L 304.070312 91.425781 L 304.070312 295.425781 L 100.070312 295.425781 Z M 100.070312 91.425781 "/>
</clipPath>
<clipPath id="clip2">
  <path d="M 175 97 L 304.070312 97 L 304.070312 219 L 175 219 Z M 175 97 "/>
</clipPath>
<clipPath id="clip3">
  <path d="M 100.070312 126 L 128 126 L 128 186 L 100.070312 186 Z M 100.070312 126 "/>
</clipPath>
<clipPath id="clip4">
  <path d="M 91 65 L 97 65 L 97 70 L 91 70 Z M 91 65 "/>
</clipPath>
<clipPath id="clip5">
  <path d="M 70.75 130.035156 L 76.167969 47.714844 L 158.488281 53.132812 L 153.074219 135.453125 Z M 70.75 130.035156 "/>
</clipPath>
<clipPath id="clip6">
  <path d="M 70.75 130.035156 L 76.167969 47.714844 L 158.488281 53.132812 L 153.074219 135.453125 Z M 70.75 130.035156 "/>
</clipPath>
<clipPath id="clip7">
  <path d="M 99 76 L 130 76 L 130 108 L 99 108 Z M 99 76 "/>
</clipPath>
<clipPath id="clip8">
  <path d="M 70.75 130.035156 L 76.167969 47.714844 L 158.488281 53.132812 L 153.074219 135.453125 Z M 70.75 130.035156 "/>
</clipPath>
<clipPath id="clip9">
  <path d="M 70.75 130.035156 L 76.167969 47.714844 L 158.488281 53.132812 L 153.074219 135.453125 Z M 70.75 130.035156 "/>
</clipPath>
<clipPath id="clip10">
  <path d="M 90 64 L 107 64 L 107 82 L 90 82 Z M 90 64 "/>
</clipPath>
<clipPath id="clip11">
  <path d="M 70.75 130.035156 L 76.167969 47.714844 L 158.488281 53.132812 L 153.074219 135.453125 Z M 70.75 130.035156 "/>
</clipPath>
<clipPath id="clip12">
  <path d="M 70.75 130.035156 L 76.167969 47.714844 L 158.488281 53.132812 L 153.074219 135.453125 Z M 70.75 130.035156 "/>
</clipPath>
<clipPath id="clip13">
  <path d="M 81 92 L 101 92 L 101 111 L 81 111 Z M 81 92 "/>
</clipPath>
<clipPath id="clip14">
  <path d="M 70.75 130.035156 L 76.167969 47.714844 L 158.488281 53.132812 L 153.074219 135.453125 Z M 70.75 130.035156 "/>
</clipPath>
<clipPath id="clip15">
  <path d="M 70.75 130.035156 L 76.167969 47.714844 L 158.488281 53.132812 L 153.074219 135.453125 Z M 70.75 130.035156 "/>
</clipPath>
<clipPath id="clip16">
  <path d="M 92 103 L 111 103 L 111 124 L 92 124 Z M 92 103 "/>
</clipPath>
<clipPath id="clip17">
  <path d="M 70.75 130.035156 L 76.167969 47.714844 L 158.488281 53.132812 L 153.074219 135.453125 Z M 70.75 130.035156 "/>
</clipPath>
<clipPath id="clip18">
  <path d="M 70.75 130.035156 L 76.167969 47.714844 L 158.488281 53.132812 L 153.074219 135.453125 Z M 70.75 130.035156 "/>
</clipPath>
<clipPath id="clip19">
  <path d="M 73 98 L 92 98 L 92 119 L 73 119 Z M 73 98 "/>
</clipPath>
<clipPath id="clip20">
  <path d="M 70.75 130.035156 L 76.167969 47.714844 L 158.488281 53.132812 L 153.074219 135.453125 Z M 70.75 130.035156 "/>
</clipPath>
<clipPath id="clip21">
  <path d="M 70.75 130.035156 L 76.167969 47.714844 L 158.488281 53.132812 L 153.074219 135.453125 Z M 70.75 130.035156 "/>
</clipPath>
<clipPath id="clip22">
  <path d="M 83 111 L 103 111 L 103 131 L 83 131 Z M 83 111 "/>
</clipPath>
<clipPath id="clip23">
  <path d="M 70.75 130.035156 L 76.167969 47.714844 L 158.488281 53.132812 L 153.074219 135.453125 Z M 70.75 130.035156 "/>
</clipPath>
<clipPath id="clip24">
  <path d="M 70.75 130.035156 L 76.167969 47.714844 L 158.488281 53.132812 L 153.074219 135.453125 Z M 70.75 130.035156 "/>
</clipPath>
<clipPath id="clip25">
  <path d="M 128 72 L 148 72 L 148 91 L 128 91 Z M 128 72 "/>
</clipPath>
<clipPath id="clip26">
  <path d="M 70.75 130.035156 L 76.167969 47.714844 L 158.488281 53.132812 L 153.074219 135.453125 Z M 70.75 130.035156 "/>
</clipPath>
<clipPath id="clip27">
  <path d="M 70.75 130.035156 L 76.167969 47.714844 L 158.488281 53.132812 L 153.074219 135.453125 Z M 70.75 130.035156 "/>
</clipPath>
<clipPath id="clip28">
  <path d="M 126 52 L 146 52 L 146 72 L 126 72 Z M 126 52 "/>
</clipPath>
<clipPath id="clip29">
  <path d="M 70.75 130.035156 L 76.167969 47.714844 L 158.488281 53.132812 L 153.074219 135.453125 Z M 70.75 130.035156 "/>
</clipPath>
<clipPath id="clip30">
  <path d="M 70.75 130.035156 L 76.167969 47.714844 L 158.488281 53.132812 L 153.074219 135.453125 Z M 70.75 130.035156 "/>
</clipPath>
<clipPath id="clip31">
  <path d="M 118 59 L 137 59 L 137 80 L 118 80 Z M 118 59 "/>
</clipPath>
<clipPath id="clip32">
  <path d="M 70.75 130.035156 L 76.167969 47.714844 L 158.488281 53.132812 L 153.074219 135.453125 Z M 70.75 130.035156 "/>
</clipPath>
<clipPath id="clip33">
  <path d="M 70.75 130.035156 L 76.167969 47.714844 L 158.488281 53.132812 L 153.074219 135.453125 Z M 70.75 130.035156 "/>
</clipPath>
<clipPath id="clip34">
  <path d="M 137 64 L 156 64 L 156 85 L 137 85 Z M 137 64 "/>
</clipPath>
<clipPath id="clip35">
  <path d="M 70.75 130.035156 L 76.167969 47.714844 L 158.488281 53.132812 L 153.074219 135.453125 Z M 70.75 130.035156 "/>
</clipPath>
<clipPath id="clip36">
  <path d="M 70.75 130.035156 L 76.167969 47.714844 L 158.488281 53.132812 L 153.074219 135.453125 Z M 70.75 130.035156 "/>
</clipPath>
<clipPath id="clip37">
  <path d="M 117 98 L 139 98 L 139 117 L 117 117 Z M 117 98 "/>
</clipPath>
<clipPath id="clip38">
  <path d="M 70.75 130.035156 L 76.167969 47.714844 L 158.488281 53.132812 L 153.074219 135.453125 Z M 70.75 130.035156 "/>
</clipPath>
<clipPath id="clip39">
  <path d="M 70.75 130.035156 L 76.167969 47.714844 L 158.488281 53.132812 L 153.074219 135.453125 Z M 70.75 130.035156 "/>
</clipPath>
<clipPath id="clip40">
  <path d="M 98 75 L 131 75 L 131 108 L 98 108 Z M 98 75 "/>
</clipPath>
<clipPath id="clip41">
  <path d="M 70.75 130.035156 L 76.167969 47.714844 L 158.488281 53.132812 L 153.074219 135.453125 Z M 70.75 130.035156 "/>
</clipPath>
<clipPath id="clip42">
  <path d="M 70.75 130.035156 L 76.167969 47.714844 L 158.488281 53.132812 L 153.074219 135.453125 Z M 70.75 130.035156 "/>
</clipPath>
<clipPath id="clip43">
  <path d="M 89 63 L 108 63 L 108 83 L 89 83 Z M 89 63 "/>
</clipPath>
<clipPath id="clip44">
  <path d="M 70.75 130.035156 L 76.167969 47.714844 L 158.488281 53.132812 L 153.074219 135.453125 Z M 70.75 130.035156 "/>
</clipPath>
<clipPath id="clip45">
  <path d="M 70.75 130.035156 L 76.167969 47.714844 L 158.488281 53.132812 L 153.074219 135.453125 Z M 70.75 130.035156 "/>
</clipPath>
<clipPath id="clip46">
  <path d="M 72 91 L 112 91 L 112 132 L 72 132 Z M 72 91 "/>
</clipPath>
<clipPath id="clip47">
  <path d="M 70.75 130.035156 L 76.167969 47.714844 L 158.488281 53.132812 L 153.074219 135.453125 Z M 70.75 130.035156 "/>
</clipPath>
<clipPath id="clip48">
  <path d="M 70.75 130.035156 L 76.167969 47.714844 L 158.488281 53.132812 L 153.074219 135.453125 Z M 70.75 130.035156 "/>
</clipPath>
<clipPath id="clip49">
  <path d="M 82 96 L 109 96 L 109 120 L 82 120 Z M 82 96 "/>
</clipPath>
<clipPath id="clip50">
  <path d="M 70.75 130.035156 L 76.167969 47.714844 L 158.488281 53.132812 L 153.074219 135.453125 Z M 70.75 130.035156 "/>
</clipPath>
<clipPath id="clip51">
  <path d="M 70.75 130.035156 L 76.167969 47.714844 L 158.488281 53.132812 L 153.074219 135.453125 Z M 70.75 130.035156 "/>
</clipPath>
<clipPath id="clip52">
  <path d="M 117 51 L 157 51 L 157 92 L 117 92 Z M 117 51 "/>
</clipPath>
<clipPath id="clip53">
  <path d="M 70.75 130.035156 L 76.167969 47.714844 L 158.488281 53.132812 L 153.074219 135.453125 Z M 70.75 130.035156 "/>
</clipPath>
<clipPath id="clip54">
  <path d="M 70.75 130.035156 L 76.167969 47.714844 L 158.488281 53.132812 L 153.074219 135.453125 Z M 70.75 130.035156 "/>
</clipPath>
<clipPath id="clip55">
  <path d="M 120 63 L 147 63 L 147 87 L 120 87 Z M 120 63 "/>
</clipPath>
<clipPath id="clip56">
  <path d="M 70.75 130.035156 L 76.167969 47.714844 L 158.488281 53.132812 L 153.074219 135.453125 Z M 70.75 130.035156 "/>
</clipPath>
<clipPath id="clip57">
  <path d="M 70.75 130.035156 L 76.167969 47.714844 L 158.488281 53.132812 L 153.074219 135.453125 Z M 70.75 130.035156 "/>
</clipPath>
<clipPath id="clip58">
  <path d="M 130 64 L 149 64 L 149 86 L 130 86 Z M 130 64 "/>
</clipPath>
<clipPath id="clip59">
  <path d="M 70.75 130.035156 L 76.167969 47.714844 L 158.488281 53.132812 L 153.074219 135.453125 Z M 70.75 130.035156 "/>
</clipPath>
<clipPath id="clip60">
  <path d="M 70.75 130.035156 L 76.167969 47.714844 L 158.488281 53.132812 L 153.074219 135.453125 Z M 70.75 130.035156 "/>
</clipPath>
<clipPath id="clip61">
  <path d="M 125 58 L 129 58 L 129 63 L 125 63 Z M 125 58 "/>
</clipPath>
<clipPath id="clip62">
  <path d="M 70.75 130.035156 L 76.167969 47.714844 L 158.488281 53.132812 L 153.074219 135.453125 Z M 70.75 130.035156 "/>
</clipPath>
<clipPath id="clip63">
  <path d="M 70.75 130.035156 L 76.167969 47.714844 L 158.488281 53.132812 L 153.074219 135.453125 Z M 70.75 130.035156 "/>
</clipPath>
<clipPath id="clip64">
  <path d="M 86 104 L 104 104 L 104 125 L 86 125 Z M 86 104 "/>
</clipPath>
<clipPath id="clip65">
  <path d="M 70.75 130.035156 L 76.167969 47.714844 L 158.488281 53.132812 L 153.074219 135.453125 Z M 70.75 130.035156 "/>
</clipPath>
<clipPath id="clip66">
  <path d="M 70.75 130.035156 L 76.167969 47.714844 L 158.488281 53.132812 L 153.074219 135.453125 Z M 70.75 130.035156 "/>
</clipPath>
<clipPath id="clip67">
  <path d="M 80 98 L 84 98 L 84 102 L 80 102 Z M 80 98 "/>
</clipPath>
<clipPath id="clip68">
  <path d="M 70.75 130.035156 L 76.167969 47.714844 L 158.488281 53.132812 L 153.074219 135.453125 Z M 70.75 130.035156 "/>
</clipPath>
<clipPath id="clip69">
  <path d="M 70.75 130.035156 L 76.167969 47.714844 L 158.488281 53.132812 L 153.074219 135.453125 Z M 70.75 130.035156 "/>
</clipPath>
<clipPath id="clip70">
  <path d="M 117 101 L 122 101 L 122 106 L 117 106 Z M 117 101 "/>
</clipPath>
<clipPath id="clip71">
  <path d="M 70.75 130.035156 L 76.167969 47.714844 L 158.488281 53.132812 L 153.074219 135.453125 Z M 70.75 130.035156 "/>
</clipPath>
<clipPath id="clip72">
  <path d="M 70.75 130.035156 L 76.167969 47.714844 L 158.488281 53.132812 L 153.074219 135.453125 Z M 70.75 130.035156 "/>
</clipPath>
<clipPath id="clip73">
  <path d="M 99 80 L 115 80 L 115 98 L 99 98 Z M 99 80 "/>
</clipPath>
<clipPath id="clip74">
  <path d="M 70.75 130.035156 L 76.167969 47.714844 L 158.488281 53.132812 L 153.074219 135.453125 Z M 70.75 130.035156 "/>
</clipPath>
<clipPath id="clip75">
  <path d="M 70.75 130.035156 L 76.167969 47.714844 L 158.488281 53.132812 L 153.074219 135.453125 Z M 70.75 130.035156 "/>
</clipPath>
<clipPath id="clip76">
  <path d="M 105 75 L 110 75 L 110 79 L 105 79 Z M 105 75 "/>
</clipPath>
<clipPath id="clip77">
  <path d="M 70.75 130.035156 L 76.167969 47.714844 L 158.488281 53.132812 L 153.074219 135.453125 Z M 70.75 130.035156 "/>
</clipPath>
<clipPath id="clip78">
  <path d="M 70.75 130.035156 L 76.167969 47.714844 L 158.488281 53.132812 L 153.074219 135.453125 Z M 70.75 130.035156 "/>
</clipPath>
<clipPath id="clip79">
  <path d="M 90 64 L 98 64 L 98 72 L 90 72 Z M 90 64 "/>
</clipPath>
<clipPath id="clip80">
  <path d="M 70.75 130.035156 L 76.167969 47.714844 L 158.488281 53.132812 L 153.074219 135.453125 Z M 70.75 130.035156 "/>
</clipPath>
<clipPath id="clip81">
  <path d="M 70.75 130.035156 L 76.167969 47.714844 L 158.488281 53.132812 L 153.074219 135.453125 Z M 70.75 130.035156 "/>
</clipPath>
<clipPath id="clip82">
  <path d="M 116 97 L 141 97 L 141 119 L 116 119 Z M 116 97 "/>
</clipPath>
<clipPath id="clip83">
  <path d="M 70.75 130.035156 L 76.167969 47.714844 L 158.488281 53.132812 L 153.074219 135.453125 Z M 70.75 130.035156 "/>
</clipPath>
<clipPath id="clip84">
  <path d="M 70.75 130.035156 L 76.167969 47.714844 L 158.488281 53.132812 L 153.074219 135.453125 Z M 70.75 130.035156 "/>
</clipPath>
</defs>
<g id="surface1">
<g clip-path="url(#clip1)" clip-rule="nonzero">
<path style=" stroke:none;fill-rule:nonzero;fill:rgb(100%,100%,100%);fill-opacity:1;" d="M 304.082031 193.414062 C 304.082031 193.660156 304.082031 193.929688 304.070312 194.164062 C 304.039062 199.191406 303.640625 204.136719 302.890625 208.960938 C 299.339844 232.300781 287.875 253.019531 271.332031 268.308594 L 271.320312 268.308594 C 253.121094 285.140625 228.785156 295.433594 202.0625 295.433594 C 188.992188 295.433594 176.480469 292.988281 165.015625 288.484375 C 163.59375 287.9375 162.175781 287.351562 160.789062 286.734375 C 141.375 278.140625 125.179688 263.671875 114.394531 245.574219 C 108.976562 236.476562 104.914062 226.460938 102.527344 215.820312 C 100.902344 208.601562 100.0625 201.105469 100.0625 193.414062 C 100.0625 190.71875 100.152344 188.046875 100.390625 185.414062 C 102.105469 163.039062 111.0625 142.703125 124.902344 126.714844 C 130.230469 120.554688 136.285156 115.042969 142.9375 110.3125 L 142.957031 110.292969 C 144.757812 109.027344 146.597656 107.773438 148.5 106.621094 C 160.089844 99.445312 173.207031 94.519531 187.265625 92.472656 C 192.097656 91.761719 197.042969 91.414062 202.0625 91.414062 C 214.039062 91.414062 225.566406 93.492188 236.230469 97.285156 C 253.484375 103.402344 268.566406 114.046875 280.125 127.75 C 295.085938 145.5 304.082031 168.40625 304.082031 193.414062 "/>
</g>
<path style=" stroke:none;fill-rule:nonzero;fill:rgb(65.098572%,65.098572%,65.098572%);fill-opacity:1;" d="M 215.695312 273.253906 C 215.695312 273.253906 210.144531 265.503906 210.757812 252.226562 C 211.367188 238.945312 210.144531 236.722656 201.503906 233.957031 C 192.867188 231.191406 184.230469 226.203125 182.996094 219.570312 C 181.765625 212.929688 189.167969 197.433594 189.167969 197.433594 C 189.167969 197.433594 199.039062 190.792969 207.675781 191.890625 C 216.3125 193.003906 231.117188 193.003906 237.90625 199.089844 C 244.691406 205.175781 249 219.015625 252.085938 219.570312 C 255.167969 220.128906 247.765625 243.921875 246.53125 247.796875 C 245.296875 251.671875 241.605469 267.167969 238.523438 273.253906 C 235.4375 279.34375 232.351562 284.875 229.875 284.875 C 227.417969 284.875 216.3125 285.984375 215.695312 273.253906 "/>
<path style=" stroke:none;fill-rule:nonzero;fill:rgb(65.098572%,65.098572%,65.098572%);fill-opacity:1;" d="M 167.757812 271.992188 C 167.226562 274.601562 166.257812 281.5625 165.015625 288.484375 C 163.59375 287.9375 162.175781 287.351562 160.789062 286.734375 C 141.375 278.140625 125.179688 263.671875 114.394531 245.574219 C 108.976562 236.476562 104.914062 226.460938 102.527344 215.820312 C 106.292969 213.824219 111.011719 212.023438 115.636719 212.105469 C 125.789062 212.300781 127.0625 214.800781 135.699219 220.992188 C 144.324219 227.203125 151.082031 242.675781 154.730469 242.945312 C 158.382812 243.191406 168.695312 267.332031 167.757812 271.992188 "/>
<g clip-path="url(#clip2)" clip-rule="nonzero">
<path style=" stroke:none;fill-rule:nonzero;fill:rgb(65.098572%,65.098572%,65.098572%);fill-opacity:1;" d="M 304.082031 193.414062 C 304.082031 193.660156 304.082031 193.929688 304.070312 194.164062 C 304.039062 199.191406 303.640625 204.136719 302.890625 208.960938 C 298.3125 202.234375 293.367188 192.140625 290.847656 190.371094 C 286.960938 187.636719 272.75 186 277.914062 193.105469 C 283.085938 200.222656 285.273438 200.222656 285.273438 200.222656 C 285.273438 200.222656 275.332031 220.261719 268.226562 218.308594 C 261.113281 216.382812 246.890625 190.371094 246.890625 190.371094 C 238.492188 183.757812 254.644531 178.886719 254.644531 178.886719 C 254.644531 178.886719 259.816406 174.371094 252.054688 169.199219 C 244.300781 164.027344 238.492188 175.007812 233.320312 173.714844 C 228.148438 172.417969 226.851562 177.589844 225.238281 182.761719 C 223.613281 187.933594 218.902344 191.027344 217.804688 182.761719 C 216.691406 174.496094 204.878906 179.542969 201 179.542969 C 197.125 179.542969 189.363281 193.105469 182.246094 193.105469 C 175.140625 193.105469 175.140625 183.417969 176.4375 178.886719 C 177.734375 174.371094 188.714844 169.835938 199.046875 169.199219 C 209.390625 168.542969 199.707031 159.492188 202.933594 157.734375 C 206.175781 155.976562 215.859375 158.855469 225.238281 162.730469 C 234.59375 166.609375 244.300781 157.558594 252.710938 157.734375 C 261.113281 157.917969 234.613281 151.09375 243.003906 144.625 C 251.425781 138.167969 233.320312 132.347656 233.957031 125.242188 C 234.613281 118.117188 228.785156 109.726562 228.785156 101.964844 C 228.785156 99.496094 231.539062 97.890625 236.230469 97.285156 C 253.484375 103.402344 268.566406 114.046875 280.125 127.75 C 295.085938 145.5 304.082031 168.40625 304.082031 193.414062 "/>
</g>
<path style=" stroke:none;fill-rule:nonzero;fill:rgb(65.098572%,65.098572%,65.098572%);fill-opacity:1;" d="M 159.667969 158.925781 C 159.667969 158.925781 163.421875 163.359375 166.308594 158.925781 C 169.199219 154.507812 169.609375 150.96875 167.800781 150.648438 C 165.980469 150.332031 155.226562 157.085938 159.667969 158.925781 "/>
<path style=" stroke:none;fill-rule:nonzero;fill:rgb(65.098572%,65.098572%,65.098572%);fill-opacity:1;" d="M 137.839844 158.925781 C 137.839844 158.925781 145.539062 156.964844 147.257812 153.109375 C 148.972656 149.25 158.8125 150.96875 161.382812 147.113281 C 163.953125 143.265625 170.597656 141.890625 172.203125 138.289062 C 173.796875 134.703125 175.53125 129.140625 168.890625 128.707031 C 162.238281 128.285156 155.6875 125.292969 155.75 128.707031 C 155.820312 132.140625 154.105469 131.277344 148.109375 133.417969 C 142.125 135.554688 135.699219 132.472656 135.699219 138.289062 C 135.699219 144.121094 137.417969 150.640625 137.417969 150.640625 C 137.417969 150.640625 133.992188 155.339844 137.839844 158.925781 "/>
<path style=" stroke:none;fill-rule:nonzero;fill:rgb(65.098572%,65.098572%,65.098572%);fill-opacity:1;" d="M 187.265625 92.472656 C 187.265625 92.472656 175.800781 107.792969 173.671875 108.203125 C 171.523438 108.605469 164.960938 113.109375 163.75 117.613281 C 162.527344 122.117188 153.929688 124.976562 147.390625 122.117188 C 140.839844 119.246094 139.339844 116.089844 142.9375 110.3125 L 142.957031 110.292969 C 144.757812 109.027344 146.597656 107.773438 148.5 106.621094 C 160.089844 99.445312 173.207031 94.519531 187.265625 92.472656 "/>
<g clip-path="url(#clip3)" clip-rule="nonzero">
<path style=" stroke:none;fill-rule:nonzero;fill:rgb(65.098572%,65.098572%,65.098572%);fill-opacity:1;" d="M 122.96875 152.664062 C 121.890625 155.933594 122.15625 159.761719 118.621094 160.890625 C 115.0625 162.042969 116.421875 166.300781 113.972656 171.75 C 111.761719 176.664062 102.28125 183.996094 100.390625 185.414062 C 102.105469 163.039062 111.0625 142.703125 124.902344 126.714844 C 126.34375 131.082031 125.789062 138.289062 127.0625 140.65625 C 128.976562 144.203125 124.058594 149.394531 122.96875 152.664062 "/>
</g>
<g clip-path="url(#clip4)" clip-rule="nonzero">
<g clip-path="url(#clip5)" clip-rule="nonzero">
<g clip-path="url(#clip6)" clip-rule="nonzero">
<path style=" stroke:none;fill-rule:nonzero;fill:rgb(65.098572%,65.098572%,65.098572%);fill-opacity:1;" d="M 92.296875 66.253906 C 91.230469 67.1875 90.8125 68.632812 91.175781 69.976562 L 96.128906 65.632812 C 94.847656 65.097656 93.359375 65.324219 92.296875 66.253906 Z M 92.296875 66.253906 "/>
</g>
</g>
</g>
<g clip-path="url(#clip7)" clip-rule="nonzero">
<g clip-path="url(#clip8)" clip-rule="nonzero">
<g clip-path="url(#clip9)" clip-rule="nonzero">
<path style=" stroke:none;fill-rule:nonzero;fill:rgb(65.098572%,65.098572%,65.098572%);fill-opacity:1;" d="M 99.660156 86.898438 C 99.640625 87.171875 99.730469 87.433594 99.90625 87.632812 L 116.609375 106.691406 C 116.785156 106.890625 117.03125 107.011719 117.304688 107.03125 C 117.574219 107.050781 117.835938 106.960938 118.039062 106.785156 L 129.101562 97.089844 C 129.503906 96.734375 129.550781 96.0625 129.195312 95.65625 L 112.492188 76.601562 C 112.125 76.183594 111.480469 76.140625 111.0625 76.507812 L 100 86.203125 C 99.796875 86.382812 99.675781 86.628906 99.660156 86.898438 Z M 99.660156 86.898438 "/>
</g>
</g>
</g>
<g clip-path="url(#clip10)" clip-rule="nonzero">
<g clip-path="url(#clip11)" clip-rule="nonzero">
<g clip-path="url(#clip12)" clip-rule="nonzero">
<path style=" stroke:none;fill-rule:nonzero;fill:rgb(67.449951%,85.099792%,91.758728%);fill-opacity:1;" d="M 106.539062 73.839844 L 99.042969 65.28125 C 98.671875 64.863281 98.03125 64.820312 97.609375 65.1875 L 90.539062 71.386719 C 90.335938 71.5625 90.214844 71.808594 90.199219 72.082031 C 90.179688 72.351562 90.269531 72.613281 90.445312 72.816406 L 97.945312 81.371094 C 98.3125 81.792969 98.953125 81.835938 99.375 81.464844 L 106.445312 75.269531 C 106.851562 74.910156 106.894531 74.242188 106.539062 73.839844 Z M 106.539062 73.839844 "/>
</g>
</g>
</g>
<g clip-path="url(#clip13)" clip-rule="nonzero">
<g clip-path="url(#clip14)" clip-rule="nonzero">
<g clip-path="url(#clip15)" clip-rule="nonzero">
<path style=" stroke:none;fill-rule:nonzero;fill:rgb(90.979004%,89.019775%,89.019775%);fill-opacity:1;" d="M 100.792969 103.277344 L 91.773438 92.988281 C 91.363281 92.519531 90.789062 92.238281 90.164062 92.199219 C 89.535156 92.15625 88.929688 92.359375 88.460938 92.773438 L 81.484375 98.886719 L 92.050781 110.941406 Z M 100.792969 103.277344 "/>
</g>
</g>
</g>
<g clip-path="url(#clip16)" clip-rule="nonzero">
<g clip-path="url(#clip17)" clip-rule="nonzero">
<g clip-path="url(#clip18)" clip-rule="nonzero">
<path style=" stroke:none;fill-rule:nonzero;fill:rgb(80.389404%,93.328857%,97.648621%);fill-opacity:1;" d="M 103.207031 123.328125 L 110.015625 117.363281 C 110.953125 116.539062 111.058594 114.988281 110.234375 114.050781 L 101.214844 103.761719 L 92.640625 111.273438 Z M 103.207031 123.328125 "/>
</g>
</g>
</g>
<g clip-path="url(#clip19)" clip-rule="nonzero">
<g clip-path="url(#clip20)" clip-rule="nonzero">
<g clip-path="url(#clip21)" clip-rule="nonzero">
<path style=" stroke:none;fill-rule:nonzero;fill:rgb(80.389404%,93.328857%,97.648621%);fill-opacity:1;" d="M 81.40625 98.855469 L 74.367188 105.125 C 73.894531 105.539062 73.613281 106.109375 73.574219 106.738281 C 73.53125 107.367188 73.734375 107.96875 74.148438 108.441406 L 83.167969 118.730469 L 91.972656 110.910156 Z M 81.40625 98.855469 "/>
</g>
</g>
</g>
<g clip-path="url(#clip22)" clip-rule="nonzero">
<g clip-path="url(#clip23)" clip-rule="nonzero">
<g clip-path="url(#clip24)" clip-rule="nonzero">
<path style=" stroke:none;fill-rule:nonzero;fill:rgb(90.979004%,89.019775%,89.019775%);fill-opacity:1;" d="M 83.585938 119.210938 L 92.605469 129.5 C 93.019531 129.96875 93.589844 130.25 94.21875 130.292969 C 94.847656 130.332031 95.449219 130.128906 95.917969 129.71875 L 102.726562 123.75 L 92.160156 111.695312 Z M 83.585938 119.210938 "/>
</g>
</g>
</g>
<g clip-path="url(#clip25)" clip-rule="nonzero">
<g clip-path="url(#clip26)" clip-rule="nonzero">
<g clip-path="url(#clip27)" clip-rule="nonzero">
<path style=" stroke:none;fill-rule:nonzero;fill:rgb(80.389404%,93.328857%,97.648621%);fill-opacity:1;" d="M 128.449219 79.890625 L 137.46875 90.179688 C 138.320312 91.152344 139.804688 91.25 140.78125 90.398438 L 147.585938 84.429688 L 137.019531 72.375 Z M 128.449219 79.890625 "/>
</g>
</g>
</g>
<g clip-path="url(#clip28)" clip-rule="nonzero">
<g clip-path="url(#clip29)" clip-rule="nonzero">
<g clip-path="url(#clip30)" clip-rule="nonzero">
<path style=" stroke:none;fill-rule:nonzero;fill:rgb(80.389404%,93.328857%,97.648621%);fill-opacity:1;" d="M 145.652344 63.957031 L 136.632812 53.667969 C 136.222656 53.199219 135.648438 52.917969 135.023438 52.875 C 134.394531 52.835938 133.789062 53.039062 133.320312 53.449219 L 126.277344 59.777344 L 136.84375 71.832031 Z M 145.652344 63.957031 "/>
</g>
</g>
</g>
<g clip-path="url(#clip31)" clip-rule="nonzero">
<g clip-path="url(#clip32)" clip-rule="nonzero">
<g clip-path="url(#clip33)" clip-rule="nonzero">
<path style=" stroke:none;fill-rule:nonzero;fill:rgb(90.979004%,89.019775%,89.019775%);fill-opacity:1;" d="M 126.261719 59.589844 L 119.226562 65.808594 C 118.753906 66.21875 118.472656 66.792969 118.433594 67.417969 C 118.390625 68.046875 118.59375 68.652344 119.007812 69.121094 L 128.027344 79.410156 L 136.828125 71.644531 Z M 126.261719 59.589844 "/>
</g>
</g>
</g>
<g clip-path="url(#clip34)" clip-rule="nonzero">
<g clip-path="url(#clip35)" clip-rule="nonzero">
<g clip-path="url(#clip36)" clip-rule="nonzero">
<path style=" stroke:none;fill-rule:nonzero;fill:rgb(90.979004%,89.019775%,89.019775%);fill-opacity:1;" d="M 148.066406 84.007812 L 154.875 78.042969 C 155.8125 77.21875 155.914062 75.667969 155.09375 74.730469 L 146.074219 64.441406 L 137.5 71.953125 Z M 148.066406 84.007812 "/>
</g>
</g>
</g>
<g clip-path="url(#clip37)" clip-rule="nonzero">
<g clip-path="url(#clip38)" clip-rule="nonzero">
<g clip-path="url(#clip39)" clip-rule="nonzero">
<path style=" stroke:none;fill-rule:nonzero;fill:rgb(100%,100%,100%);fill-opacity:1;" d="M 125.71875 104.449219 C 121.261719 108.355469 118.207031 113.113281 117.863281 116.648438 L 138.839844 98.261719 C 135.320312 98.140625 130.171875 100.542969 125.71875 104.449219 Z M 125.71875 104.449219 "/>
</g>
</g>
</g>
<g clip-path="url(#clip40)" clip-rule="nonzero">
<g clip-path="url(#clip41)" clip-rule="nonzero">
<g clip-path="url(#clip42)" clip-rule="nonzero">
<path style="fill:none;stroke-width:2;stroke-linecap:round;stroke-linejoin:round;stroke:rgb(19.999695%,19.999695%,19.999695%);stroke-opacity:1;stroke-miterlimit:10;" d="M 87.329851 59.527079 C 88.133607 58.727124 88.131921 57.409239 87.325919 56.605881 L 71.189007 40.466948 C 70.383005 39.663591 69.071168 39.664879 68.267412 40.464833 L 40.469126 68.265183 C 39.659721 69.071583 39.661407 70.389468 40.467409 71.192825 L 56.604321 87.331758 C 57.410323 88.135116 58.72216 88.133828 59.531566 87.327428 Z M 87.329851 59.527079 " transform="matrix(0.0423192,-0.64314,0.64314,0.0423192,70.750473,130.036837)"/>
</g>
</g>
</g>
<g clip-path="url(#clip43)" clip-rule="nonzero">
<g clip-path="url(#clip44)" clip-rule="nonzero">
<g clip-path="url(#clip45)" clip-rule="nonzero">
<path style="fill:none;stroke-width:2;stroke-linecap:round;stroke-linejoin:round;stroke:rgb(19.999695%,19.999695%,19.999695%);stroke-opacity:1;stroke-miterlimit:10;" d="M 103.47946 37.552625 C 104.282818 36.746623 104.281132 35.428739 103.481178 34.624983 L 93.163491 24.310475 C 92.357489 23.507117 91.045652 23.508405 90.236246 24.314805 L 77.755791 36.791485 C 76.952433 37.597488 76.954119 38.915372 77.760121 39.71873 L 88.07176 50.033636 C 88.877762 50.836994 90.195647 50.835308 90.999403 50.035354 Z M 103.47946 37.552625 " transform="matrix(0.0423192,-0.64314,0.64314,0.0423192,70.750473,130.036837)"/>
</g>
</g>
</g>
<g clip-path="url(#clip46)" clip-rule="nonzero">
<g clip-path="url(#clip47)" clip-rule="nonzero">
<g clip-path="url(#clip48)" clip-rule="nonzero">
<path style="fill:none;stroke-width:2;stroke-linecap:round;stroke-linejoin:round;stroke:rgb(19.999695%,19.999695%,19.999695%);stroke-opacity:1;stroke-miterlimit:10;" d="M 59.85023 29.126361 C 61.456946 27.514356 61.459622 24.878189 59.847618 23.271473 L 39.283542 2.71065 C 37.677188 1.097489 35.041418 1.100861 33.428257 2.707215 L 2.706659 33.433092 C 1.099545 35.039049 1.096869 37.675217 2.708874 39.281932 L 23.267299 59.849201 C 24.879701 61.461964 27.515471 61.458592 29.122187 59.846588 Z M 59.85023 29.126361 " transform="matrix(0.0423192,-0.64314,0.64314,0.0423192,70.750473,130.036837)"/>
</g>
</g>
</g>
<g clip-path="url(#clip49)" clip-rule="nonzero">
<g clip-path="url(#clip50)" clip-rule="nonzero">
<g clip-path="url(#clip51)" clip-rule="nonzero">
<path style="fill:none;stroke-width:2;stroke-linecap:round;stroke-linejoin:round;stroke:rgb(19.999695%,19.999695%,19.999695%);stroke-opacity:1;stroke-miterlimit:10;" d="M 18.070481 18.069955 L 54.362221 54.365406 " transform="matrix(0.0423192,-0.64314,0.64314,0.0423192,70.750473,130.036837)"/>
</g>
</g>
</g>
<g clip-path="url(#clip52)" clip-rule="nonzero">
<g clip-path="url(#clip53)" clip-rule="nonzero">
<g clip-path="url(#clip54)" clip-rule="nonzero">
<path style="fill:none;stroke-width:2;stroke-linecap:round;stroke-linejoin:round;stroke:rgb(19.999695%,19.999695%,19.999695%);stroke-opacity:1;stroke-miterlimit:10;" d="M 125.288468 94.57099 C 126.901232 92.958587 126.89786 90.322818 125.291903 88.715704 L 104.727828 68.154881 C 103.115426 66.542118 100.485306 66.539044 98.872542 68.151446 L 68.150944 98.877323 C 66.537783 100.483678 66.541155 103.119448 68.147509 104.732609 L 88.711585 125.293432 C 90.323589 126.900148 92.953709 126.903221 94.566472 125.290819 Z M 125.288468 94.57099 " transform="matrix(0.0423192,-0.64314,0.64314,0.0423192,70.750473,130.036837)"/>
</g>
</g>
</g>
<g clip-path="url(#clip55)" clip-rule="nonzero">
<g clip-path="url(#clip56)" clip-rule="nonzero">
<g clip-path="url(#clip57)" clip-rule="nonzero">
<path style="fill:none;stroke-width:2;stroke-linecap:round;stroke-linejoin:round;stroke:rgb(19.999695%,19.999695%,19.999695%);stroke-opacity:1;stroke-miterlimit:10;" d="M 73.430709 73.427253 L 109.930693 109.933729 " transform="matrix(0.0423192,-0.64314,0.64314,0.0423192,70.750473,130.036837)"/>
</g>
</g>
</g>
<g clip-path="url(#clip58)" clip-rule="nonzero">
<g clip-path="url(#clip59)" clip-rule="nonzero">
<g clip-path="url(#clip60)" clip-rule="nonzero">
<path style="fill:none;stroke-width:2;stroke-linecap:round;stroke-linejoin:round;stroke:rgb(19.999695%,19.999695%,19.999695%);stroke-opacity:1;stroke-miterlimit:10;" d="M 78.432571 115.012821 L 105.93469 87.511351 " transform="matrix(0.0423192,-0.64314,0.64314,0.0423192,70.750473,130.036837)"/>
</g>
</g>
</g>
<g clip-path="url(#clip61)" clip-rule="nonzero">
<g clip-path="url(#clip62)" clip-rule="nonzero">
<g clip-path="url(#clip63)" clip-rule="nonzero">
<path style="fill:none;stroke-width:2;stroke-linecap:round;stroke-linejoin:round;stroke:rgb(19.999695%,19.999695%,19.999695%);stroke-opacity:1;stroke-miterlimit:10;" d="M 111.793012 81.653452 L 114.893054 78.552306 " transform="matrix(0.0423192,-0.64314,0.64314,0.0423192,70.750473,130.036837)"/>
</g>
</g>
</g>
<g clip-path="url(#clip64)" clip-rule="nonzero">
<g clip-path="url(#clip65)" clip-rule="nonzero">
<g clip-path="url(#clip66)" clip-rule="nonzero">
<path style="fill:none;stroke-width:2;stroke-linecap:round;stroke-linejoin:round;stroke:rgb(19.999695%,19.999695%,19.999695%);stroke-opacity:1;stroke-miterlimit:10;" d="M 12.988285 49.56859 L 40.484357 22.067518 " transform="matrix(0.0423192,-0.64314,0.64314,0.0423192,70.750473,130.036837)"/>
</g>
</g>
</g>
<g clip-path="url(#clip67)" clip-rule="nonzero">
<g clip-path="url(#clip68)" clip-rule="nonzero">
<g clip-path="url(#clip69)" clip-rule="nonzero">
<path style="fill:none;stroke-width:2;stroke-linecap:round;stroke-linejoin:round;stroke:rgb(19.999695%,19.999695%,19.999695%);stroke-opacity:1;stroke-miterlimit:10;" d="M 46.348727 16.209221 L 49.448768 13.108075 " transform="matrix(0.0423192,-0.64314,0.64314,0.0423192,70.750473,130.036837)"/>
</g>
</g>
</g>
<g clip-path="url(#clip70)" clip-rule="nonzero">
<g clip-path="url(#clip71)" clip-rule="nonzero">
<g clip-path="url(#clip72)" clip-rule="nonzero">
<path style="fill:none;stroke-width:2;stroke-linecap:round;stroke-linejoin:round;stroke:rgb(19.999695%,19.999695%,19.999695%);stroke-opacity:1;stroke-miterlimit:10;" d="M 48.153263 70.863227 L 44.147375 74.874299 " transform="matrix(0.0423192,-0.64314,0.64314,0.0423192,70.750473,130.036837)"/>
</g>
</g>
</g>
<g clip-path="url(#clip73)" clip-rule="nonzero">
<g clip-path="url(#clip74)" clip-rule="nonzero">
<g clip-path="url(#clip75)" clip-rule="nonzero">
<path style="fill:none;stroke-width:2;stroke-linecap:round;stroke-linejoin:round;stroke:rgb(19.999695%,19.999695%,19.999695%);stroke-opacity:1;stroke-miterlimit:10;" d="M 78.533498 40.487793 L 55.487963 63.535523 " transform="matrix(0.0423192,-0.64314,0.64314,0.0423192,70.750473,130.036837)"/>
</g>
</g>
</g>
<g clip-path="url(#clip76)" clip-rule="nonzero">
<g clip-path="url(#clip77)" clip-rule="nonzero">
<g clip-path="url(#clip78)" clip-rule="nonzero">
<path style="fill:none;stroke-width:2;stroke-linecap:round;stroke-linejoin:round;stroke:rgb(19.999695%,19.999695%,19.999695%);stroke-opacity:1;stroke-miterlimit:10;" d="M 87.648826 49.605937 L 84.172727 53.084104 " transform="matrix(0.0423192,-0.64314,0.64314,0.0423192,70.750473,130.036837)"/>
</g>
</g>
</g>
<g clip-path="url(#clip79)" clip-rule="nonzero">
<g clip-path="url(#clip80)" clip-rule="nonzero">
<g clip-path="url(#clip81)" clip-rule="nonzero">
<path style="fill:none;stroke-width:2;stroke-linecap:round;stroke-linejoin:round;stroke:rgb(19.999695%,19.999695%,19.999695%);stroke-opacity:1;stroke-miterlimit:10;" d="M 102.466931 33.6106 C 103.602568 31.300748 103.207138 28.429606 101.288616 26.502931 C 99.364444 24.582702 96.489951 24.18877 94.177738 25.324857 " transform="matrix(0.0423192,-0.64314,0.64314,0.0423192,70.750473,130.036837)"/>
</g>
</g>
</g>
<g clip-path="url(#clip82)" clip-rule="nonzero">
<g clip-path="url(#clip83)" clip-rule="nonzero">
<g clip-path="url(#clip84)" clip-rule="nonzero">
<path style="fill:none;stroke-width:2;stroke-linecap:round;stroke-linejoin:round;stroke:rgb(19.999695%,19.999695%,19.999695%);stroke-opacity:1;stroke-miterlimit:10;" d="M 24.360598 71.11081 C 29.863928 70.65758 38.233682 74.813971 45.567036 82.142225 C 52.894343 89.470877 57.046786 97.840536 56.595352 103.34873 Z M 24.360598 71.11081 " transform="matrix(0.0423192,-0.64314,0.64314,0.0423192,70.750473,130.036837)"/>
</g>
</g>
</g>
</g>
</svg>
